<svg width="22" height="22" viewBox="0 0 22 22" fill="none" xmlns="http://www.w3.org/2000/svg">
<path fill-rule="evenodd" clip-rule="evenodd" d="M10.5895 0.499878C4.79348 0.499878 0.0999756 5.20388 0.0999756 10.9999C0.0999756 16.7959 4.79348 21.4999 10.5895 21.4999C16.396 21.4999 21.1 16.7959 21.1 10.9999C21.1 5.20388 16.396 0.499878 10.5895 0.499878ZM10.6 19.3999C5.95898 19.3999 2.19998 15.6409 2.19998 10.9999C2.19998 6.35888 5.95898 2.59988 10.6 2.59988C15.241 2.59988 19 6.35888 19 10.9999C19 15.6409 15.241 19.3999 10.6 19.3999ZM11.65 4.69988V10.9999L16.0915 14.0869L14.7685 15.7144L9.54997 12.0499V4.69988H10.6H11.65Z" fill="#3F4945"/>
</svg>
